<?xml version="1.0" encoding="UTF-8" standalone="no"?>
<svg
   version="1.1"
   id="Layer_1"
   x="0px"
   y="0px"
   width="1469.9194"
   viewBox="0 0 1469.9194 323.22198"
   enable-background="new 0 0 1024 1024"
   xml:space="preserve"
   sodipodi:docname="Logo_horizontal_white.svg"
   inkscape:version="1.4.2 (ebf0e940d0, 2025-05-08)"
   height="323.22198"
   xmlns:inkscape="http://www.inkscape.org/namespaces/inkscape"
   xmlns:sodipodi="http://sodipodi.sourceforge.net/DTD/sodipodi-0.dtd"
   xmlns="http://www.w3.org/2000/svg"
   xmlns:svg="http://www.w3.org/2000/svg"><defs
   id="defs11" /><sodipodi:namedview
   id="namedview11"
   pagecolor="#ffffff"
   bordercolor="#000000"
   borderopacity="0.25"
   inkscape:showpageshadow="2"
   inkscape:pageopacity="0.0"
   inkscape:pagecheckerboard="0"
   inkscape:deskcolor="#d1d1d1"
   inkscape:zoom="0.53378276"
   inkscape:cx="747.49511"
   inkscape:cy="356.88676"
   inkscape:window-width="1752"
   inkscape:window-height="1026"
   inkscape:window-x="0"
   inkscape:window-y="0"
   inkscape:window-maximized="1"
   inkscape:current-layer="Layer_1" />
<path
   fill="#000000"
   opacity="1"
   stroke="none"
   d="m 270.64132,197.99413 c 9.87354,-10.62518 20.01505,-20.51538 28.7938,-31.74759 -18.99546,10.86151 -36.27567,24.49918 -56.0737,34.22379 2.23572,-5.18577 6.05716,-9.02341 9.75812,-12.82798 24.3992,-25.08252 48.06622,-50.91867 73.68817,-74.75079 9.86496,-9.17584 15.26825,-19.356898 16.88605,-32.491388 1.17089,-9.50617 3.85839,-18.82554 5.04449,-28.78003 C 290.7215,110.87215 232.70477,170.12419 174.68802,229.37624 c -0.47953,-0.27869 -0.95905,-0.55734 -1.43854,-0.83603 0.69974,-7.94238 2.64407,-15.78555 2.72357,-23.22562 -7.94012,7.61655 -16.26105,15.2464 -24.18777,23.26596 -27.52588,27.84806 -55.07015,55.67548 -83.52282,82.58368 -4.05357,3.83356 -9.66708,3.32642 -14.57925,3.97767 -16.81493,2.22955 -33.5134,5.13012 -50.24335,7.85937 -1.1087,0.18091 -2.27816,0.66998 -3.43986,-0.84656 1.1402,-2.02679 3.41278,-2.78943 5.2655,-3.95031 17.78397,-11.14344 35.87911,-21.79316 53.15064,-33.74729 9.96307,-6.89572 17.81373,-16.04568 26.20909,-24.57864 23.48771,-23.87274 46.8137,-47.90579 70.05928,-72.01465 5.40768,-5.60855 11.88531,-8.98316 19.15271,-11.19806 3.02344,-0.92148 6.00915,-2.21838 9.10458,-2.60644 11.04254,-1.38434 18.42459,-8.28214 25.71356,-15.82743 49.20328,-50.93353 98.15665,-102.110618 148.00055,-152.4221481 7.80866,-7.88194 8.37036,-7.92053 14.9599,0.96814 26.48792,35.7295501 52.93378,71.4904801 79.26673,107.3341981 2.19885,2.99304 4.17071,3.61304 7.4848,2.18182 7.0296,-3.03564 14.16333,-5.83371 21.2843,-8.6535 7.3446,-2.90836 11.27448,-1.93301 16.05743,4.37439 12.38129,16.32767 24.52228,32.83847 36.98401,49.10397 15.29749,19.96677 30.00397,40.38864 46.02362,59.8042 1.91181,2.31702 4.27014,3.08704 6.8454,3.60974 7.65051,1.55262 15.31738,3.03446 23.00525,4.38861 4.11334,0.72455 7.31415,2.67316 10.24884,5.64591 14.27777,14.46292 27.96607,29.55447 43.62463,42.58154 17.95844,14.9404 37.21656,28.09928 56.93952,40.58499 1.49786,0.94825 3.29443,1.53528 4.37933,3.88666 -4.97027,0.83008 -9.36572,-0.59588 -13.78332,-1.15051 -18.12934,-2.276 -36.25678,-4.57245 -54.36609,-7.00134 -24.35626,-3.26685 -48.69092,-6.69391 -73.04266,-9.99494 -26.82477,-3.63629 -53.64106,-7.3435 -80.49317,-10.76819 -25.36969,-3.23565 -50.67706,-6.9378 -76.15277,-9.39831 -14.03253,-1.35532 -27.9444,-3.97055 -41.90515,-6.05472 -7.38513,-1.10251 -14.06995,2.10571 -20.93125,3.67874 -35.32193,8.09796 -70.53335,16.67737 -105.79568,25.03662 -3.41473,0.80945 -6.61331,3.14337 -11.41428,1.62811 5.23642,-4.00585 9.90381,-7.54211 14.53516,-11.125 31.23059,-24.16046 62.44424,-48.34295 93.69705,-72.4747 2.46167,-1.90075 4.23822,-4.04489 5.06589,-7.13266 7.14487,-26.65518 14.36417,-53.29043 21.59116,-79.92355 0.47827,-1.76254 1.16357,-3.46207 0.51324,-5.37772 -2.36121,-0.86425 -3.28516,1.1478 -4.44397,2.32767 -41.10568,41.8508 -81.51175,84.3682 -121.06866,127.6854 -4.29111,4.69897 -8.75522,7.91973 -15.17307,9.49319 -15.01807,3.68198 -29.80228,8.31897 -44.67517,12.59021 -1.57471,0.45221 -3.08698,1.23108 -6.44565,0.20993 27.37415,-28.95505 54.15198,-57.27933 81.17004,-85.87451 m 205.28107,35.54861 c -17.28552,-21.36203 -35.07318,-42.28936 -53.25195,-63.00723 -1.90924,1.97604 -0.97894,3.22159 -0.56836,4.40323 4.14447,11.92609 8.32849,23.83841 12.49902,35.75546 0.58515,1.67206 1.85096,2.70078 3.27973,3.62476 12.1618,7.86496 24.30255,15.76257 36.4823,23.59958 1.13257,0.72876 2.20721,2.26785 3.92096,1.03387 0.80792,-2.23065 -1.05433,-3.33951 -2.3617,-5.40967 z"
   id="path1"
   style="fill:#ffffff;fill-opacity:1" />
<path
   fill="#000000"
   opacity="1"
   stroke="none"
   d="m 1200.3646,180.77807 c 4.9169,-0.62164 6.5346,2.11139 7.8215,5.76197 9.1815,26.04553 21.1516,51.24836 27.7413,78.06726 1.5141,6.16176 3.6612,13.20764 2.6858,16.24385 -0.6661,2.07383 -1.6386,3.58042 -7.3597,3.58042 -5.7523,0 -11.7901,0.0588 -22.5934,0.0346 -4.3021,-0.01 -6.5013,-1.4411 -7.3658,-5.53588 -0.5136,-2.43256 -1.7033,-4.7414 -2.0637,-7.18342 -0.8024,-5.43707 -3.7977,-6.93194 -9.0067,-6.35827 -15.8622,1.74682 -31.7471,3.31378 -47.6475,4.66491 -3.6242,0.30799 -5.9911,1.75031 -7.4148,4.82074 -3.5451,7.64557 -9.3788,10.22077 -17.7237,9.69465 -10.0725,-0.63508 -20.2155,-0.15046 -30.3571,-0.15046 -0.3882,-3.32635 1.7707,-4.79187 3.0907,-6.53186 19.6271,-25.87256 39.3542,-51.66931 59.0005,-77.52734 3.3213,-4.37152 6.6781,-8.76697 9.4675,-13.4776 2.7689,-4.67621 6.2491,-6.6322 11.7723,-6.38312 9.8128,0.44251 19.6555,0.22186 29.9528,0.2796 m -21.371,60.01007 c 11.4178,-2.21496 10.0388,-0.85534 7.2622,-11.21002 -0.6865,-2.55999 -1.2126,-5.17602 -2.0907,-7.66821 -1.0647,-3.02094 -1.0209,-6.5412 -3.9616,-9.38001 -7.8685,10.1319 -14.9463,20.44105 -22.1881,31.42994 7.3456,-0.0532 13.6822,-1.95826 20.9782,-3.1717 z"
   id="path2"
   sodipodi:nodetypes="ccsssssssssscssssccssccc"
   style="fill:#ffffff;fill-opacity:1" />
<path
   fill="#000000"
   opacity="1"
   stroke="none"
   d="m 1463.1365,61.612966 c 9.8088,12.05646 8.7748,26.3349 -1.7777,38.828134 -10.2917,12.18451 -23.4133,18.8454 -38.7221,21.99225 -4.8584,0.99859 -9.6303,2.41821 -15.046,3.79925 4.2633,4.46918 9.0716,7.14008 13.4095,10.36817 8.6868,6.46435 17.5515,12.68939 26.3095,19.05877 1.1406,0.82953 2.9547,1.45453 2.444,3.35236 -0.5283,1.96356 -2.4164,1.42023 -3.8105,1.51764 -12.9761,0.9068 -25.9503,0.12067 -38.925,-0.11823 -2.3123,-0.0425 -4.0134,-1.42535 -5.7665,-2.71508 -10.8678,-7.99598 -21.8421,-15.85144 -32.5763,-24.02247 -3.5103,-2.67193 -6.7803,-2.79144 -11.0352,-2.32342 -8.7073,0.95776 -12.7366,5.21314 -14.8654,13.66779 -3.6236,14.39154 -4.1691,14.20294 -19.1407,14.43548 -6.6584,0.10339 -13.3123,0.47833 -19.9693,0.69946 -5.9579,0.19794 -6.5291,-0.50463 -5.0801,-6.1488 5.7942,-22.57135 13.9399,-44.44141 19.9884,-66.934334 3.0427,-11.31475 10.3029,-21.88482 5.6975,-33.97644 1.7064,-1.49743 3.0824,-1.33447 4.396,-1.34405 30.4926,-0.22199 60.9866,-0.67676 91.4768,-0.49274 9.0783,0.0549 18.301,-0.0564 27.2847,2.32636 5.7482,1.52465 10.994,3.79712 15.7084,8.0299 m -46.0847,30.40851 c 1.979,-0.83319 4.0786,-1.46344 5.9062,-2.5509 2.2703,-1.35077 3.6065,-3.49768 3.2078,-6.27344 -0.4253,-2.96002 -3.041,-2.75879 -5.0566,-3.00641 -17.8481,-2.19311 -35.7955,-1.70385 -53.7187,-1.87927 -2.7794,-0.0272 -3.6433,1.83057 -4.3184,3.99884 -1.8245,5.8598 -3.6891,11.70728 -5.486,17.5755 -1.2989,4.242074 -0.4894,5.135444 3.8177,4.299444 18.3847,-3.56836 36.781,-7.084294 55.648,-12.163764 z"
   id="path3"
   style="fill:#ffffff;fill-opacity:1" />
<path
   fill="#000000"
   opacity="1"
   stroke="none"
   d="m 1278.3096,82.514946 c -24.5893,-3.00275 -48.8736,-3.51849 -73.1605,-4.14844 -4.1936,-0.10876 -5.8985,1.39466 -6.9118,5.22248 -2.6966,10.18689 -2.8222,10.17157 7.718,10.17511 17.8274,0.006 35.6548,-0.0131 53.4822,-0.0215 1.9666,-9.1e-4 3.9332,-6e-5 5.6686,-6e-5 0.9333,1.92584 -0.1956,2.64502 -0.9822,3.40393 -6.1135,5.897524 -12.3174,11.702524 -18.3657,17.665654 -2.6765,2.6388 -5.6303,3.66364 -9.4108,3.58155 -15.4942,-0.33649 -30.9234,1.04925 -46.3667,2.07043 -5.6103,0.37103 -5.1042,4.5766 -6.0598,8.88843 37.9749,2.32592 75.3689,-1.38752 112.3144,-4.89093 1.0499,2.43811 0.3266,3.37292 -0.4203,4.28759 -7.5841,9.28736 -15.2068,18.54371 -22.7337,27.87732 -1.7392,2.15674 -3.8177,2.85273 -6.5052,2.9206 -35.6455,0.89965 -71.2924,1.03833 -106.9446,0.47546 -8.9465,-0.14129 -17.8972,-0.0212 -27.0343,-0.0212 -0.5344,-4.93896 1.467,-8.52911 2.5747,-12.22412 8.023,-26.76117 16.1585,-53.489074 24.395,-80.185304 1.0781,-3.49439 1.3357,-6.77979 0.2442,-10.23712 -1.136,-3.59766 -0.4334,-5.62537 4.0198,-5.61853 47.3172,0.0732 94.6347,0.0306 141.952,0.03 1.1297,0 2.3283,-0.14959 3.246,0.72809 0.4863,2.01972 -0.892,3.21302 -1.851,4.48029 -5.4273,7.17139 -11.0339,14.20959 -16.3523,21.45971 -3.1704,4.32197 -6.9356,6.01636 -12.516,4.08057 z"
   id="path4"
   style="fill:#ffffff;fill-opacity:1" />
<path
   fill="#000000"
   opacity="1"
   stroke="none"
   d="m 1032.3732,79.794246 c -8.4263,7.14093 -9.6871,16.89831 -10.2655,26.505494 -1.1864,19.70422 4.5917,25.4046 24.4401,25.4527 11.339,0.0275 22.5795,-1.02301 33.7429,-2.96179 0.9783,-0.16986 1.9268,-0.50513 2.9013,-0.70343 2.4161,-0.49158 4.5215,-1.37128 4.9984,-4.14649 0.4996,-2.90771 -1.9602,-3.60998 -3.7397,-4.6344 -11.9809,-6.89746 -24.0092,-13.71277 -36.0088,-20.578004 -1.5362,-0.87885 -3.4232,-1.36389 -4.3378,-3.74481 30.8381,0 61.448,0 91.9073,0 0.8079,2.47729 -0.047,4.18732 -0.5388,5.907414 -3.1996,11.19226 -6.7289,22.29901 -9.6041,33.573 -3.1123,12.20312 -11.1886,18.80694 -22.8026,21.96154 -10.654,2.89386 -21.5954,4.02454 -32.5408,4.57093 -17.7906,0.888 -35.6083,1.33673 -53.218,-2.4347 -8.2543,-1.76788 -15.8313,-4.97595 -22.74392,-9.83282 -4.1627,-2.92474 -6.8103,-6.97131 -8.0717,-11.69769 -5.6173,-21.0492 -4.6168,-41.819404 3.6081,-62.053474 3.0717,-7.55658 9.0366,-12.7536 16.02932,-16.58099 9.1952,-5.03302 19.1541,-7.59247 29.6625,-7.60498 24.9934,-0.0297 49.9869,0.0432 74.9803,0.0677 10.1277,0.01 20.2552,0.002 30.388,0.42951 0.9747,3.12073 -0.8223,4.03906 -1.8815,5.14715 -6.5607,6.86329 -13.2562,13.59912 -19.7439,20.52985 -2.4997,2.67041 -5.2735,3.617 -8.8786,3.47382 -23.9519,-0.95142 -47.91,-1.74781 -71.8642,-2.64502 -2.2957,-0.086 -4.2216,0.71576 -6.4183,1.99951 z"
   id="path5"
   style="fill:#ffffff;fill-opacity:1" />
<path
   fill="#000000"
   opacity="1"
   stroke="none"
   d="m 1067.7739,252.92737 c 11.2558,-1.20447 22.0547,-2.36249 32.8206,-3.51691 0.6749,2.77264 -0.8034,4.1106 -1.9337,5.42688 -7.0494,8.20923 -14.215,16.31854 -21.2713,24.52203 -2.4864,2.89063 -5.1009,4.18219 -9.2926,4.3852 -33.3032,1.61346 -66.6151,0.17944 -99.91529,0.70922 -7.55545,0.12018 -8.24847,-0.72137 -5.71579,-8.12719 8.02081,-23.45368 14.14146,-47.50702 22.26516,-70.90351 2.5051,-7.21496 0.1857,-12.49212 -2.5727,-18.36474 -2.5953,-5.52545 -2.2111,-6.1156 4.0331,-6.12714 41.64582,-0.0773 83.29162,-0.11328 124.93752,-0.13617 1.4392,-7.9e-4 3.0075,-0.3681 4.2205,0.77088 0.6737,1.33288 -0.05,2.30206 -0.7479,3.22998 -5.4039,7.1867 -10.884,14.31707 -16.2077,21.56256 -1.6817,2.28863 -3.8429,2.29553 -6.22,2.1073 -18.6006,-1.47284 -37.2599,-1.29334 -55.8905,-1.90137 -10.989,-0.3587 -13.4856,2.34534 -14.3379,14.98645 19.1613,0 38.2907,0 57.912,0 -0.6847,4.96076 -3.8931,6.93591 -5.7903,9.70996 -5.1233,7.4914 -12.0863,10.76953 -21.3042,11.36774 -12.5736,0.81592 -25.0484,3.10864 -37.5802,4.64941 -2.4275,0.29852 -3.9478,1.10895 -4.6847,3.60694 -0.7341,2.48809 -0.4378,3.93084 2.4634,3.96228 18.1468,0.19683 36.2868,0.19616 54.8125,-1.9198 z"
   id="path6"
   style="fill:#ffffff;fill-opacity:1" />
<path
   fill="#000000"
   opacity="1"
   stroke="none"
   d="m 907.65131,143.44336 c -11.71051,1.03418 -22.96082,2.08191 -34.21649,3.06897 -3.95081,0.34649 -5.38758,3.53686 -7.28232,6.21191 -1.61176,2.27545 -2.77673,4.71668 -6.21567,5.11591 -12.37042,1.43615 -24.60951,3.95306 -37.07916,4.58014 -1.74704,0.0879 -3.65599,0.56707 -5.2332,-0.75617 -0.57123,-1.78723 0.68725,-2.88232 1.50236,-4.0506 23.62679,-33.86254 47.31049,-67.685544 70.86984,-101.594914 1.77823,-2.55932 3.80674,-3.30249 6.68311,-3.30298 13.82404,-0.002 27.64893,-0.0618 41.47141,-0.25305 2.66683,-0.0369 3.87597,1.16681 4.79797,3.40088 8.95108,21.6897 17.92761,43.36884 26.94949,65.029184 4.60556,11.05737 9.31193,22.07281 13.98503,33.10199 2.2433,5.29467 1.7825,6.08807 -3.8413,6.01068 -11.65117,-0.16034 -23.30123,-0.49604 -34.95235,-0.52655 -3.88565,-0.0101 -6.40878,-1.15503 -7.20734,-5.19147 -0.25558,-1.29193 -0.87246,-2.5105 -1.3016,-3.77032 -3.43888,-10.09522 -3.94562,-10.35987 -14.62528,-8.77741 -4.5982,0.68121 -9.22995,1.1358 -14.3045,1.7038 m 13.14444,-29.48822 c 1.4541,-0.3017 2.62961,-0.91321 2.10751,-2.6753 -2.61649,-8.83093 -4.95865,-17.758484 -9.02466,-27.752504 -8.13354,12.12055 -15.52777,23.139414 -23.71319,35.337224 11.16946,-0.82513 20.47781,-3.1156 30.63034,-4.90942 z"
   id="path7"
   style="fill:#ffffff;fill-opacity:1" />
<path
   fill="#000000"
   opacity="1"
   stroke="none"
   d="m 843.63861,180.77533 c 29.98868,9.7e-4 59.47898,0.0262 88.96918,-0.0173 5.68787,-0.008 11.26007,0.73487 16.80801,1.87238 18.46555,3.7857 27.29728,20.42059 20.60459,38.60901 -5.07163,13.7829 -15.43137,22.70257 -28.83609,28.08557 -13.58835,5.45679 -27.98001,7.01581 -42.43653,8.12646 -12.6015,0.9682 -25.19464,2.04578 -37.79693,3.00312 -2.68808,0.20422 -3.65466,1.92004 -4.31754,4.1217 -1.53436,5.09607 -3.11352,10.17859 -4.62863,15.28027 -0.71603,2.41114 -1.85619,4.38007 -4.69279,4.38941 -11.46276,0.0378 -22.92569,0.0157 -34.27211,0.0157 -1.52353,-2.43281 -0.49268,-4.45734 0.11528,-6.48108 7.41464,-24.68085 14.69848,-49.40271 22.38118,-74 1.48054,-4.74018 1.19784,-8.51325 -1.41729,-12.59858 -1.81526,-2.83575 -3.92068,-5.78393 -3.55964,-9.68939 4.30958,-1.3518 8.48753,-0.42279 13.07931,-0.71722 m 39.22501,51.93701 c 5.56058,-0.98554 11.1419,-1.86768 16.67697,-2.98029 8.94824,-1.7987 18.07046,-3.0545 26.31958,-7.33032 3.76135,-1.94964 5.95367,-5.31805 5.10095,-9.40491 -0.81042,-3.88403 -4.67496,-4.19116 -8.04739,-4.56506 -14.44492,-1.60156 -28.94321,-0.78766 -43.41922,-0.95557 -1.75818,-0.0204 -3.84903,-0.45666 -4.63446,1.91126 -2.75388,8.30255 -5.47424,16.61621 -8.3461,25.34759 5.83261,0.36139 10.5849,-1.42584 16.34967,-2.0227 z"
   id="path8"
   style="fill:#ffffff;fill-opacity:1" />
<path
   fill="#000000"
   opacity="1"
   stroke="none"
   d="m 839.3898,102.70807 c -4.00705,15.18799 -8.73935,29.59033 -21.15553,39.78589 -20.28632,16.65802 -42.92778,23.56427 -68.85632,15.96539 -12.97548,-3.80267 -20.36132,-13.83899 -27.0426,-24.60614 -1.59236,-2.56616 -0.53917,-4.04297 2.04179,-4.80212 10.37236,-3.05097 20.72249,-6.18409 31.1434,-9.06 4.117,-1.13623 7.66861,0.35211 11.0914,2.99066 4.11449,3.17175 8.01384,6.54858 14.34662,5.18194 5.71516,-1.23327 9.22322,-3.85937 11.46654,-9.04162 4.45156,-10.28357 7.05264,-21.119264 9.98356,-31.868114 0.65921,-2.41754 -0.32429,-4.18945 -1.43027,-6.06561 -4.65232,-7.89209 -9.36592,-15.74933 -13.91401,-23.70117 -2.57097,-4.49506 -2.00968,-5.46875 3.16928,-5.4964 18.496,-0.0987 36.9929,-0.15429 55.48863,-0.0614 3.26016,0.0164 6.51636,0.82349 10.2941,1.336 -5.61499,16.71747 -11.04799,32.893 -16.62659,49.442694 z"
   id="path9"
   style="fill:#ffffff;fill-opacity:1" />
<path
   fill="#000000"
   opacity="1"
   stroke="none"
   d="m 880.94748,10.988396 c 6.67871,-2.2614698 13.08499,-2.2441998 19.52234,-0.92547 3.78119,0.77459 5.92471,3.04608 6.92264,6.91705 2.53644,9.8385 -3.76322,21.14178 -14.62253,20.69128 -4.09265,-0.16986 -8.25235,0.35022 -12.37558,-0.24914 -2.62079,-0.38092 -4.68924,-1.56787 -5.96466,-3.98535 -3.8024,-7.20734 -0.81931,-18.06134 6.51779,-22.44837 z"
   id="path10"
   style="fill:#ffffff;fill-opacity:1" />
<path
   fill="#000000"
   opacity="1"
   stroke="none"
   d="m 944.77374,9.6776662 c 8.96073,1.4223698 11.74457,5.6575298 9.59678,14.0018898 -2.71195,10.53614 -7.97895,14.65631 -18.80771,14.49305 -2.97428,-0.0447 -5.94953,-0.44513 -8.9108,-0.79633 -2.48169,-0.29425 -4.27988,-1.72504 -5.47717,-3.86932 -4.16968,-7.46759 -0.28312,-19.36628 7.58685,-22.33338 4.96701,-1.8726798 10.20496,-2.9548898 16.01205,-1.4959098 z"
   id="path11"
   style="fill:#ffffff;fill-opacity:1" />
<path
   d="m 1249.1027,262.01603 c 2.5714,-10.33448 13.6428,-40.34356 20.1959,-60.60705 1.676,-5.18262 0.1112,-9.32917 -1.7996,-13.79639 -2.4148,-5.64545 -1.6131,-6.94739 4.3297,-6.98706 13.4644,-0.0898 26.9299,-0.0283 41.1667,-0.0283 -2.6294,12.56171 -6.7355,24.02948 -9.9632,35.8064 2.2888,0.31878 3.2435,-1.0304 4.3745,-1.90113 13.8545,-10.6651 27.6884,-21.35687 41.5063,-32.06952 1.2088,-0.93713 2.3541,-1.73571 3.9992,-1.73504 14.8282,0.006 29.6565,-0.0439 44.4848,-0.045 0.6167,-7e-5 1.2334,0.31829 1.8289,0.48242 0.67,2.5636 -1.4157,3.29107 -2.6706,4.40478 -14.2362,12.63373 -29.8935,23.40344 -45.4388,34.29993 -3.5639,2.49811 -4.3862,4.2539 -1.671,8.20465 11.3191,16.47009 22.2669,33.19574 33.3157,49.85095 1.0648,1.60516 2.6078,3.08685 2.2898,5.17108 -1.2438,1.63764 -2.855,1.2099 -4.2804,1.21241 -12.4967,0.0221 -24.9947,-0.10065 -37.4895,0.0443 -3.1109,0.0361 -4.696,-1.13672 -6.163,-3.80231 -6.2625,-11.37891 -12.8956,-22.55408 -19.1394,-33.94281 -2.0217,-3.68762 -3.8231,-4.39691 -7.7686,-2.37048 -18.3571,9.42828 -18.4208,9.30413 -24.2668,29.32769 -0.093,0.31958 -1.9722,5.54841 -2.067,5.86762 -1.1569,3.1536 -3.5659,5.24476 -9.7815,5.12767 -3.9449,-0.0743 -11.7508,0 -21.0889,0 -1.0723,0 -3.8455,-0.72591 -4.9256,-5.12539 -0.9235,-3.76204 -1.407,-7.6258 1.0224,-17.38942 z"
   style="fill:#ffffff;stroke:none;fill-opacity:1"
   id="path1-3"
   sodipodi:nodetypes="sssscccssscsssscsssssscssss" /></svg>
