<?xml version="1.0" encoding="UTF-8" standalone="no"?>
<svg
   version="1.1"
   id="Layer_1"
   x="0px"
   y="0px"
   width="723.75964"
   viewBox="0 0 723.75963 323.22198"
   enable-background="new 0 0 1024 1024"
   xml:space="preserve"
   height="323.22198"
   xmlns="http://www.w3.org/2000/svg"
   xmlns:svg="http://www.w3.org/2000/svg"><defs
   id="defs11" />
<path
   fill="#000000"
   opacity="1"
   stroke="none"
   d="m 270.64132,197.99413 c 9.87354,-10.62518 20.01505,-20.51538 28.7938,-31.74759 -18.99546,10.86151 -36.27567,24.49918 -56.0737,34.22379 2.23572,-5.18577 6.05716,-9.02341 9.75812,-12.82798 24.3992,-25.08252 48.06622,-50.91867 73.68817,-74.75079 9.86496,-9.17584 15.26825,-19.356898 16.88605,-32.491388 1.17089,-9.50617 3.85839,-18.82554 5.04449,-28.78003 C 290.7215,110.87215 232.70477,170.12419 174.68802,229.37624 c -0.47953,-0.27869 -0.95905,-0.55734 -1.43854,-0.83603 0.69974,-7.94238 2.64407,-15.78555 2.72357,-23.22562 -7.94012,7.61655 -16.26105,15.2464 -24.18777,23.26596 -27.52588,27.84806 -55.07015,55.67548 -83.52282,82.58368 -4.05357,3.83356 -9.66708,3.32642 -14.57925,3.97767 -16.81493,2.22955 -33.5134,5.13012 -50.24335,7.85937 -1.1087,0.18091 -2.27816,0.66998 -3.43986,-0.84656 1.1402,-2.02679 3.41278,-2.78943 5.2655,-3.95031 17.78397,-11.14344 35.87911,-21.79316 53.15064,-33.74729 9.96307,-6.89572 17.81373,-16.04568 26.20909,-24.57864 23.48771,-23.87274 46.8137,-47.90579 70.05928,-72.01465 5.40768,-5.60855 11.88531,-8.98316 19.15271,-11.19806 3.02344,-0.92148 6.00915,-2.21838 9.10458,-2.60644 11.04254,-1.38434 18.42459,-8.28214 25.71356,-15.82743 49.20328,-50.93353 98.15665,-102.110618 148.00055,-152.4221481 7.80866,-7.88194 8.37036,-7.92053 14.9599,0.96814 26.48792,35.7295501 52.93378,71.4904801 79.26673,107.3341981 2.19885,2.99304 4.17071,3.61304 7.4848,2.18182 7.0296,-3.03564 14.16333,-5.83371 21.2843,-8.6535 7.3446,-2.90836 11.27448,-1.93301 16.05743,4.37439 12.38129,16.32767 24.52228,32.83847 36.98401,49.10397 15.29749,19.96677 30.00397,40.38864 46.02362,59.8042 1.91181,2.31702 4.27014,3.08704 6.8454,3.60974 7.65051,1.55262 15.31738,3.03446 23.00525,4.38861 4.11334,0.72455 7.31415,2.67316 10.24884,5.64591 14.27777,14.46292 27.96607,29.55447 43.62463,42.58154 17.95844,14.9404 37.21656,28.09928 56.93952,40.58499 1.49786,0.94825 3.29443,1.53528 4.37933,3.88666 -4.97027,0.83008 -9.36572,-0.59588 -13.78332,-1.15051 -18.12934,-2.276 -36.25678,-4.57245 -54.36609,-7.00134 -24.35626,-3.26685 -48.69092,-6.69391 -73.04266,-9.99494 -26.82477,-3.63629 -53.64106,-7.3435 -80.49317,-10.76819 -25.36969,-3.23565 -50.67706,-6.9378 -76.15277,-9.39831 -14.03253,-1.35532 -27.9444,-3.97055 -41.90515,-6.05472 -7.38513,-1.10251 -14.06995,2.10571 -20.93125,3.67874 -35.32193,8.09796 -70.53335,16.67737 -105.79568,25.03662 -3.41473,0.80945 -6.61331,3.14337 -11.41428,1.62811 5.23642,-4.00585 9.90381,-7.54211 14.53516,-11.125 31.23059,-24.16046 62.44424,-48.34295 93.69705,-72.4747 2.46167,-1.90075 4.23822,-4.04489 5.06589,-7.13266 7.14487,-26.65518 14.36417,-53.29043 21.59116,-79.92355 0.47827,-1.76254 1.16357,-3.46207 0.51324,-5.37772 -2.36121,-0.86425 -3.28516,1.1478 -4.44397,2.32767 -41.10568,41.8508 -81.51175,84.3682 -121.06866,127.6854 -4.29111,4.69897 -8.75522,7.91973 -15.17307,9.49319 -15.01807,3.68198 -29.80228,8.31897 -44.67517,12.59021 -1.57471,0.45221 -3.08698,1.23108 -6.44565,0.20993 27.37415,-28.95505 54.15198,-57.27933 81.17004,-85.87451 m 205.28107,35.54861 c -17.28552,-21.36203 -35.07318,-42.28936 -53.25195,-63.00723 -1.90924,1.97604 -0.97894,3.22159 -0.56836,4.40323 4.14447,11.92609 8.32849,23.83841 12.49902,35.75546 0.58515,1.67206 1.85096,2.70078 3.27973,3.62476 12.1618,7.86496 24.30255,15.76257 36.4823,23.59958 1.13257,0.72876 2.20721,2.26785 3.92096,1.03387 0.80792,-2.23065 -1.05433,-3.33951 -2.3617,-5.40967 z"
   id="path1"
   style="fill:#ffffff;fill-opacity:1" />










</svg>
