<svg xmlns="http://www.w3.org/2000/svg" viewBox="0 0 1128 225.85"><defs><style>.cls-1{fill:none;}.cls-1,.cls-2,.cls-3{stroke:#fff;stroke-miterlimit:10;}.cls-1,.cls-2{stroke-width:2px;}.cls-2,.cls-3{fill:#fff;}</style></defs><g id="Background"><rect class="cls-1" x="590" y="1" width="537" height="152"/></g><g id="Text"><path class="cls-2" d="M320.58,826.81a13.62,13.62,0,0,0-3.62-3.17,12.47,12.47,0,0,0-4.68-1.66c-1.41-.1-2.73-.19-4-.26s-2.58-.12-4-.12H293.87v27.69h13.89c.9,0,1.7,0,2.41-.07s1.48-.13,2.34-.23a11.88,11.88,0,0,0,4.75-1.54,12.35,12.35,0,0,0,3.55-3.1A13.85,13.85,0,0,0,323,840.2a15.07,15.07,0,0,0,.75-4.71,13.17,13.17,0,0,0-.83-4.53A14.55,14.55,0,0,0,320.58,826.81Z" transform="translate(-119.58 -776.78)"/><path class="cls-2" d="M424.89,842.05q-1.47,4.46-2.91,9t-2.9,8.94c-1,2.94-1.95,5.7-2.91,8.26h23.16l-11.54-34.48C426.84,836.32,425.87,839.08,424.89,842.05Z" transform="translate(-119.58 -776.78)"/><path class="cls-2" d="M120.58,777.78v152h591v-152ZM236.46,910.56H207.94a4.77,4.77,0,0,1-2.53-.76,6.37,6.37,0,0,1-2.07-2q-4-5.44-7.28-10.42t-6.38-9.92l-6.26-10q-3.16-5.06-6.94-10.64l-9.58,11v29.43q0,3.32-3.62,3.32h-22.2q-3.37,0-3.38-3.32V801.84a3.39,3.39,0,0,1,.86-2.34,3.11,3.11,0,0,1,2.45-1h22.27a4,4,0,0,1,2.37.9,2.86,2.86,0,0,1,1.25,2.42V843q8.22-10.58,16.14-20.83l16.07-20.82a6.48,6.48,0,0,1,2.15-2.08,5.12,5.12,0,0,1,2.6-.79h28.67c1.21,0,1.82.38,1.82,1.13a3.15,3.15,0,0,1-.83,1.81L198,848.24l39.31,59.15a4.18,4.18,0,0,1,.83,2C238.12,910.18,237.56,910.56,236.46,910.56Zm119.62-.64a3.38,3.38,0,0,1-2.15.64H328.05a3.74,3.74,0,0,1-2.3-.76,3.41,3.41,0,0,1-1.32-2L306.1,873.29H293.87v34c0,2.17-1.15,3.25-3.47,3.25H268a3.57,3.57,0,0,1-2.41-.79,3.12,3.12,0,0,1-.91-2.46V802a3.71,3.71,0,0,1,.83-2.53,3.16,3.16,0,0,1,2.49-.94h48.74a36.8,36.8,0,0,1,14.57,2.9,38.11,38.11,0,0,1,11.84,7.89,36.84,36.84,0,0,1,8,11.65A35.23,35.23,0,0,1,354,835.18a33.81,33.81,0,0,1-1.4,9.78,36.43,36.43,0,0,1-3.89,8.67A36.88,36.88,0,0,1,342.8,861a38.63,38.63,0,0,1-7.51,5.62l19.39,36.52c.36.7.81,1.53,1.36,2.49a5.06,5.06,0,0,1,.83,2.49A2.25,2.25,0,0,1,356.08,909.92Zm126.19-.31a3.68,3.68,0,0,1-2.87.95H457.74a4.76,4.76,0,0,1-2.67-.64,4.23,4.23,0,0,1-1.48-2.15q-1.5-3.85-2.94-7.66c-.95-2.54-1.91-5.1-2.86-7.66H407.72c-1,2.56-1.92,5.12-2.9,7.66s-1.95,5.09-2.91,7.66a3.77,3.77,0,0,1-3.85,2.79H375.81a3.65,3.65,0,0,1-2.38-.76c-.63-.5-.74-1.25-.34-2.26l41-106.08a2.2,2.2,0,0,1,.49-1,5.71,5.71,0,0,1,2.3-1.7,3.65,3.65,0,0,1,1.28-.26h19.32a3.22,3.22,0,0,1,2.19.79,10.11,10.11,0,0,1,1.36,1.4l1.88,4.3,39.61,102.15A2.23,2.23,0,0,1,482.27,909.61ZM588,820.79a3.94,3.94,0,0,1-.9,2.44,3.15,3.15,0,0,1-2.64,1.17H538.62v23.39H572.5a3.7,3.7,0,0,1,2.41.79,3,3,0,0,1,1,2.52v18a4.11,4.11,0,0,1-.86,2.45,2.8,2.8,0,0,1-2.38,1.17h-34v34.55c0,2.17-1.15,3.25-3.47,3.25h-23a2.86,2.86,0,0,1-2.72-3.17V802a3.43,3.43,0,0,1,.87-2.49,3,3,0,0,1,2.08-1h72.2a3.26,3.26,0,0,1,2.6,1,3.79,3.79,0,0,1,.87,2.63Zm112.19-.23a4.2,4.2,0,0,1-.94,2.59,3.17,3.17,0,0,1-2.68,1.25h-26V907a3.6,3.6,0,0,1-1,2.45,3.26,3.26,0,0,1-2.56,1.1H644.92a3.55,3.55,0,0,1-2.41-1,3.29,3.29,0,0,1-1.13-2.53V824.4h-26a3.52,3.52,0,0,1-2.53-1,3.78,3.78,0,0,1-1-2.86V801.83a3.06,3.06,0,0,1,1-2.41,3.68,3.68,0,0,1,2.53-.9h81.18a3.73,3.73,0,0,1,2.41.83,3.33,3.33,0,0,1,1.21,2.48Z" transform="translate(-119.58 -776.78)"/><path class="cls-3" d="M760.74,909c-.5-.85-1-1.73-1.43-2.64a29.25,29.25,0,0,1-1.21-2.71q-9.74-25.65-19.39-50.86t-19.39-50.85a2.11,2.11,0,0,0-.11-.68,1.61,1.61,0,0,1-.12-.6c0-1.41.93-2.11,2.79-2.11h24.3a3.9,3.9,0,0,1,3.92,2.86l23.09,68.74,21.35-68.74a4.05,4.05,0,0,1,4.15-2.86h24.52a3.66,3.66,0,0,1,2.45.64,2.16,2.16,0,0,1,.72,1.7,3,3,0,0,1-.08.83v.22l-13.43,38.48L823,870l24.45-68.66a4,4,0,0,1,4.15-2.86h23.76a3.69,3.69,0,0,1,2.46.64,2.19,2.19,0,0,1,.71,1.7,3.12,3.12,0,0,1-.07.83v.22Q873.31,815.2,868,828.4T857.2,854.8q-5.4,13.2-10.71,26.45t-10.38,26.44a5.23,5.23,0,0,1-1.36,1.85,3.55,3.55,0,0,1-2.56,1H813.7a4.24,4.24,0,0,1-2.52-.64,3.57,3.57,0,0,1-1.25-1.7L798,876.83q-2.57,6.87-5,13.47t-5,13.47q-.39,1.05-.87,2.22a13.46,13.46,0,0,1-1.17,2.19,7.07,7.07,0,0,1-1.55,1.7,3.16,3.16,0,0,1-2,.68H763.91C762.3,910.56,761.24,910,760.74,909Z" transform="translate(-119.58 -776.78)"/><path class="cls-3" d="M903.79,802a3.58,3.58,0,0,1,.86-2.53,3.15,3.15,0,0,1,2.45-.94H982a3.27,3.27,0,0,1,2.56,1,3.67,3.67,0,0,1,.91,2.63v18.66a3.9,3.9,0,0,1-.91,2.44,3.13,3.13,0,0,1-2.64,1.17H933v18.71h37.73a3.89,3.89,0,0,1,2.37.68,2.58,2.58,0,0,1,.95,2.26v16.3a3.13,3.13,0,0,1-.83,2,3,3,0,0,1-2.42,1H933v19.32h50.7q3.41,0,3.4,3.46v19a1.87,1.87,0,0,1-.6,1.35c-.2,1.41-1.24,2.11-3.1,2.11H907.1a3.55,3.55,0,0,1-2.41-.79,3.12,3.12,0,0,1-.9-2.46Z" transform="translate(-119.58 -776.78)"/><path class="cls-3" d="M1017.11,802a3.66,3.66,0,0,1,.83-2.53,3.13,3.13,0,0,1,2.49-.94h48.74a36.75,36.75,0,0,1,14.56,2.9,38.11,38.11,0,0,1,11.84,7.89,36.84,36.84,0,0,1,8,11.65,35.24,35.24,0,0,1,2.91,14.23A33.79,33.79,0,0,1,1105,845a36.4,36.4,0,0,1-3.88,8.67,36.93,36.93,0,0,1-5.93,7.32,38.87,38.87,0,0,1-7.5,5.62l19.39,36.52q.53,1,1.35,2.49a5.06,5.06,0,0,1,.83,2.49,2.25,2.25,0,0,1-.79,1.85,3.36,3.36,0,0,1-2.15.64h-25.88a3.74,3.74,0,0,1-2.3-.76,3.41,3.41,0,0,1-1.32-2l-18.33-34.48H1046.3v34c0,2.17-1.15,3.25-3.47,3.25h-22.4a3.6,3.6,0,0,1-2.42-.79,3.12,3.12,0,0,1-.9-2.46Zm59.07,33.5a12.93,12.93,0,0,0-.83-4.53,14.55,14.55,0,0,0-2.34-4.15,13.62,13.62,0,0,0-3.62-3.17,12.47,12.47,0,0,0-4.68-1.66c-1.4-.1-2.72-.19-4-.26s-2.58-.12-4-.12H1046.3v27.69h13.89c.9,0,1.71,0,2.41-.07s1.48-.13,2.34-.23a11.83,11.83,0,0,0,4.75-1.54,12.35,12.35,0,0,0,3.55-3.1,13.85,13.85,0,0,0,2.19-4.15A15.07,15.07,0,0,0,1076.18,835.49Z" transform="translate(-119.58 -776.78)"/><path class="cls-3" d="M1134.28,801.84a3.39,3.39,0,0,1,.86-2.34,3.11,3.11,0,0,1,2.45-1h22.27a4.1,4.1,0,0,1,2.37.9,2.85,2.85,0,0,1,1.24,2.42V843q8.23-10.56,16.15-20.83l16.07-20.82a6.48,6.48,0,0,1,2.15-2.08,5.12,5.12,0,0,1,2.6-.79h28.67c1.21,0,1.81.38,1.81,1.13a3.09,3.09,0,0,1-.83,1.81l-35.53,46.86,39.31,59.15a4.18,4.18,0,0,1,.83,2c0,.75-.56,1.13-1.66,1.13h-28.52a4.77,4.77,0,0,1-2.53-.76,6.37,6.37,0,0,1-2.07-2q-4-5.44-7.29-10.42t-6.37-9.92l-6.26-10q-3.18-5.06-6.94-10.64l-9.59,11v29.43q0,3.32-3.61,3.32h-22.2c-2.26,0-3.38-1.11-3.38-3.32Z" transform="translate(-119.58 -776.78)"/><path class="cls-3" d="M941.26,956.84a1.42,1.42,0,0,1,.36-1,1.24,1.24,0,0,1,.85-.4H972.2a1.37,1.37,0,0,1,1.08.4,1.62,1.62,0,0,1,.35,1.09v7.68a1.59,1.59,0,0,1-.37,1,1.28,1.28,0,0,1-1.09.49H953.28v9.63h14a1.52,1.52,0,0,1,1,.32,1.27,1.27,0,0,1,.4,1v7.43a1.67,1.67,0,0,1-.36,1,1.14,1.14,0,0,1-1,.48h-14v14.23c0,.89-.47,1.33-1.43,1.33h-9.47a1.17,1.17,0,0,1-1.12-1.3Z" transform="translate(-119.58 -776.78)"/><path class="cls-3" d="M986.09,956.78a1.44,1.44,0,0,1,.34-1,1.27,1.27,0,0,1,1-.4h9.13a1.72,1.72,0,0,1,1,.37,1.15,1.15,0,0,1,.53,1v43.4c0,.91-.51,1.36-1.52,1.36h-9.13a1.2,1.2,0,0,1-1.37-1.36Z" transform="translate(-119.58 -776.78)"/><path class="cls-3" d="M1010.26,956.77a1.26,1.26,0,0,1,.42-1,1.51,1.51,0,0,1,1-.37h33.43a1.55,1.55,0,0,1,1,.34,1.39,1.39,0,0,1,.5,1v7.72a1.72,1.72,0,0,1-.39,1.06,1.32,1.32,0,0,1-1.1.52h-10.72v34a1.5,1.5,0,0,1-.4,1,1.35,1.35,0,0,1-1.06.45h-9.11a1.46,1.46,0,0,1-1-.42,1.33,1.33,0,0,1-.46-1v-34h-10.69a1.45,1.45,0,0,1-1-.41,1.55,1.55,0,0,1-.42-1.17Z" transform="translate(-119.58 -776.78)"/><path class="cls-3" d="M1058.94,956.78a1.44,1.44,0,0,1,.34-1,1.27,1.27,0,0,1,1-.4h10.16a2.05,2.05,0,0,1,.9.22,1.87,1.87,0,0,1,.8.74q3.94,6.38,7.83,12.55t7.86,12.55V956.59a1.57,1.57,0,0,1,.5-.87,1.31,1.31,0,0,1,.87-.31h8.85a1.65,1.65,0,0,1,1.09.36,1.22,1.22,0,0,1,.44,1v43.55a1.1,1.1,0,0,1-.38.92,1.57,1.57,0,0,1-1,.29h-9.91a1,1,0,0,1-.72-.28,5.08,5.08,0,0,1-.65-.74L1078.76,987q-4-6.68-8.2-13.51v26.69a1.19,1.19,0,0,1-1.43,1.36h-8.82a1.29,1.29,0,0,1-1-.38,1.43,1.43,0,0,1-.33-.95Z" transform="translate(-119.58 -776.78)"/><path class="cls-3" d="M1114.39,956.84a1.46,1.46,0,0,1,.36-1,1.3,1.3,0,0,1,1-.39h30.82a1.34,1.34,0,0,1,1.05.4,1.54,1.54,0,0,1,.38,1.09v7.68a1.6,1.6,0,0,1-.38,1,1.26,1.26,0,0,1-1.08.49h-20.13v7.7H1142a1.62,1.62,0,0,1,1,.28,1.07,1.07,0,0,1,.39.93v6.71a1.29,1.29,0,0,1-.35.84,1.2,1.2,0,0,1-1,.4h-15.56v8h20.87a1.25,1.25,0,0,1,1.4,1.42v7.81a.76.76,0,0,1-.25.56c-.08.57-.51.86-1.27.86h-31.41a1.45,1.45,0,0,1-1-.32,1.28,1.28,0,0,1-.38-1Z" transform="translate(-119.58 -776.78)"/><path class="cls-3" d="M1166.8,986.63q.53.43,1.35,1.17a20.48,20.48,0,0,0,1.88,1.44,15.85,15.85,0,0,0,3.14,1.65,9.19,9.19,0,0,0,3.26.59,8.42,8.42,0,0,0,2.66-.36,4.41,4.41,0,0,0,1.69-1,3.29,3.29,0,0,0,.89-1.36,5.28,5.28,0,0,0,.26-1.65,2.41,2.41,0,0,0-.73-1.72,7.51,7.51,0,0,0-1.78-1.35,15.77,15.77,0,0,0-2.21-1l-2-.7a44.87,44.87,0,0,1-6.52-2.81,19.86,19.86,0,0,1-4.66-3.35,12.5,12.5,0,0,1-2.8-4.06,12.71,12.71,0,0,1-.93-5,11.75,11.75,0,0,1,1.16-5.24,11.54,11.54,0,0,1,3.33-4,15.75,15.75,0,0,1,5.2-2.59,23.63,23.63,0,0,1,6.81-.91,22.92,22.92,0,0,1,5.42.63,20.59,20.59,0,0,1,5.11,2c.7.41,1.37.84,2,1.29a17.85,17.85,0,0,1,1.66,1.29,7.28,7.28,0,0,1,1.14,1.18,1.7,1.7,0,0,1,.42,1,1.36,1.36,0,0,1-.21.74,4.31,4.31,0,0,1-.6.78l-4.75,5.06a1.52,1.52,0,0,1-1.06.53,1.3,1.3,0,0,1-.79-.25,7.27,7.27,0,0,1-.79-.62l-.28-.25c-.42-.35-.88-.71-1.39-1.08a11.15,11.15,0,0,0-1.63-1,11.33,11.33,0,0,0-1.83-.75,6.89,6.89,0,0,0-2-.29,9.8,9.8,0,0,0-1.92.17,5.32,5.32,0,0,0-1.59.54,3.13,3.13,0,0,0-1.09,1,2.85,2.85,0,0,0,0,3,4.19,4.19,0,0,0,1.3,1.18,11.49,11.49,0,0,0,2.16,1c.86.32,1.86.67,3,1,2.19.72,4.22,1.49,6.07,2.28a20.61,20.61,0,0,1,4.8,2.83,11.6,11.6,0,0,1,3.15,3.9,12.12,12.12,0,0,1,1.14,5.5,13.58,13.58,0,0,1-1.4,6.19,14,14,0,0,1-3.84,4.74,17.61,17.61,0,0,1-5.73,3,22.58,22.58,0,0,1-7.08,1.07,20.1,20.1,0,0,1-7-1.27,27.21,27.21,0,0,1-6.43-3.43,16.5,16.5,0,0,1-2.1-1.78c-.57-.58-1-1-1.35-1.4l-.1-.09a.18.18,0,0,0-.06-.08l-.06-.05a.14.14,0,0,0-.06-.07l-.06-.05a2.19,2.19,0,0,1-.72-1.25,1.75,1.75,0,0,1,.72-1.18l5.37-5.13a2,2,0,0,1,1.06-.46,1.21,1.21,0,0,1,.59.18A6.85,6.85,0,0,1,1166.8,986.63Z" transform="translate(-119.58 -776.78)"/><path class="cls-3" d="M1212.22,986.63q.52.43,1.35,1.17a20.48,20.48,0,0,0,1.88,1.44,15.85,15.85,0,0,0,3.14,1.65,9.15,9.15,0,0,0,3.26.59,8.47,8.47,0,0,0,2.66-.36,4.41,4.41,0,0,0,1.69-1,3.29,3.29,0,0,0,.89-1.36,5.28,5.28,0,0,0,.26-1.65,2.41,2.41,0,0,0-.73-1.72,7.37,7.37,0,0,0-1.79-1.35,15.65,15.65,0,0,0-2.2-1l-2-.7a44.87,44.87,0,0,1-6.52-2.81,19.86,19.86,0,0,1-4.66-3.35,12.5,12.5,0,0,1-2.8-4.06,12.71,12.71,0,0,1-.93-5,11.75,11.75,0,0,1,1.16-5.24,11.54,11.54,0,0,1,3.33-4,15.75,15.75,0,0,1,5.2-2.59,23.61,23.61,0,0,1,6.8-.91,22.94,22.94,0,0,1,5.43.63,20.59,20.59,0,0,1,5.11,2c.7.41,1.37.84,2,1.29a17.85,17.85,0,0,1,1.66,1.29,7.28,7.28,0,0,1,1.14,1.18,1.7,1.7,0,0,1,.42,1,1.36,1.36,0,0,1-.21.74,4.31,4.31,0,0,1-.6.78l-4.75,5.06a1.52,1.52,0,0,1-1.06.53,1.3,1.3,0,0,1-.79-.25,8.4,8.4,0,0,1-.8-.62l-.28-.25q-.62-.52-1.38-1.08a11.71,11.71,0,0,0-1.63-1,11.33,11.33,0,0,0-1.83-.75,6.89,6.89,0,0,0-2-.29,10,10,0,0,0-1.93.17,5.25,5.25,0,0,0-1.58.54,3,3,0,0,0-1.09,1,2.6,2.6,0,0,0-.4,1.48,2.57,2.57,0,0,0,.43,1.5,4.24,4.24,0,0,0,1.31,1.18,11.49,11.49,0,0,0,2.16,1c.86.32,1.86.67,3,1,2.19.72,4.22,1.49,6.07,2.28a20.61,20.61,0,0,1,4.8,2.83,11.6,11.6,0,0,1,3.15,3.9,12.12,12.12,0,0,1,1.14,5.5,13.58,13.58,0,0,1-1.4,6.19,14,14,0,0,1-3.84,4.74,17.71,17.71,0,0,1-5.73,3,22.63,22.63,0,0,1-7.08,1.07,20,20,0,0,1-7-1.27,27.21,27.21,0,0,1-6.43-3.43,16.5,16.5,0,0,1-2.1-1.78c-.57-.58-1-1-1.35-1.4l-.1-.09a.18.18,0,0,0-.06-.08l-.06-.05a.14.14,0,0,0-.06-.07s0,0-.06-.05a2.19,2.19,0,0,1-.72-1.25,1.75,1.75,0,0,1,.72-1.18l5.37-5.13a2,2,0,0,1,1.06-.46,1.21,1.21,0,0,1,.59.18A6.85,6.85,0,0,1,1212.22,986.63Z" transform="translate(-119.58 -776.78)"/></g></svg>